<?xml version="1.0" standalone="no"?>
<!DOCTYPE svg PUBLIC "-//W3C//DTD SVG 20010904//EN"
 "http://www.w3.org/TR/2001/REC-SVG-20010904/DTD/svg10.dtd">
<svg version="1.0" xmlns="http://www.w3.org/2000/svg"
 width="1718.000000pt" height="884.000000pt" viewBox="0 0 1718.000000 884.000000"
 preserveAspectRatio="xMidYMid meet">

<g transform="translate(0.000000,884.000000) scale(0.100000,-0.100000)"
fill="#000000" stroke="none">
<path d="M6715 7663 c-220 -18 -475 -72 -634 -133 -44 -17 -86 -28 -92 -24 -8
5 -9 3 -4 -6 6 -10 4 -12 -9 -7 -9 4 -15 3 -12 -1 3 -5 -11 -16 -30 -25 -47
-23 -57 -21 -14 3 77 42 11 16 -98 -38 -421 -211 -784 -531 -1035 -912 -327
-498 -443 -1149 -311 -1750 92 -417 291 -777 604 -1090 445 -447 974 -663
1625 -663 346 -1 561 44 960 201 283 111 314 112 565 20 210 -77 490 -151 622
-164 65 -6 66 -7 57 -30 -5 -14 -18 -35 -30 -47 -43 -45 -61 -107 -121 -425
-7 -40 -24 -72 -75 -140 -36 -48 -72 -86 -79 -86 -12 2 -14 -43 -13 -265 1
-180 4 -252 10 -222 14 74 31 74 77 -1 46 -75 61 -149 72 -350 11 -210 25
-281 70 -375 57 -116 150 -198 284 -248 57 -21 85 -26 170 -26 106 0 236 26
279 56 31 22 68 19 134 -11 95 -43 248 -33 313 21 8 7 32 18 52 24 20 7 41 18
47 25 16 19 -28 26 -170 26 l-119 0 0 774 0 774 33 5 c17 3 83 9 145 13 l112
7 0 88 0 89 -145 0 c-90 0 -145 4 -145 10 0 6 24 10 53 10 33 0 47 3 38 9 -17
11 35 52 105 81 104 45 94 25 94 187 l0 144 -147 -3 -148 -3 -30 -56 c-16 -32
-41 -77 -54 -100 -36 -64 -35 -147 3 -227 l29 -60 -20 -29 c-72 -102 -95 -190
-102 -391 l-6 -164 -184 2 -184 1 7 -32 c3 -17 6 -68 7 -113 0 -59 3 -75 9
-58 11 27 36 37 117 47 62 7 123 -6 150 -31 28 -27 44 -131 50 -344 7 -250 2
-307 -30 -320 -18 -7 -14 -9 21 -9 l42 -1 0 -155 0 -155 -87 0 c-208 1 -313
39 -429 154 -39 39 -83 95 -98 123 -51 101 -56 147 -56 536 l0 357 -90 0 -90
0 0 90 0 90 36 0 c21 0 33 4 29 10 -4 6 21 10 68 10 123 0 287 12 281 21 -3 5
43 9 101 9 68 0 104 4 100 10 -4 6 13 10 43 10 93 0 172 12 172 26 0 11 -35
14 -181 14 l-180 0 3 300 3 300 -150 1 c-82 1 -132 5 -110 8 l40 6 -35 8 -35
8 55 32 c30 17 92 41 139 54 103 27 140 52 375 253 177 151 516 475 516 492 0
9 -57 -37 -532 -439 -158 -134 -290 -243 -293 -243 -3 0 -6 996 -7 2213 l-3
2212 -25 -45 c-16 -28 -33 -46 -47 -48 -19 -3 -22 -11 -28 -95 -3 -51 -5
-1029 -3 -2175 2 -1145 1 -2081 -2 -2080 -3 2 -205 70 -448 151 l-442 149 0
33 c0 18 -3 46 -6 62 l-6 29 -96 -64 c-54 -35 -162 -96 -242 -136 -426 -211
-877 -274 -1375 -190 -464 78 -828 267 -1171 609 -352 350 -546 716 -636 1194
-29 155 -36 523 -14 686 15 108 38 220 67 328 l10 37 96 0 c84 0 94 2 83 15
-11 13 -3 15 60 15 72 0 73 0 55 20 -18 20 -17 20 95 20 99 0 111 2 100 15
-11 13 -3 15 60 15 72 0 73 0 55 20 -18 20 -17 20 8 20 22 0 31 9 52 50 14 28
28 50 30 50 3 0 -3 -17 -14 -39 -23 -44 -121 -288 -121 -299 0 -4 13 14 29 39
42 66 78 88 174 106 45 9 106 22 135 30 75 21 258 147 283 196 12 21 11 21 -8
5 -37 -33 -30 -18 13 26 84 88 98 230 35 354 -24 47 -29 67 -22 80 10 16 10
16 11 -2 0 -10 9 -35 21 -56 l21 -37 40 19 c22 11 71 26 108 34 95 19 145 8
279 -67 132 -72 189 -89 291 -89 106 0 182 27 330 116 110 65 196 61 310 -16
87 -59 126 -124 175 -294 31 -106 61 -161 120 -215 56 -52 125 -86 233 -115
105 -29 115 -33 170 -70 49 -33 116 -129 133 -189 26 -92 18 -134 -56 -272
-37 -70 -74 -151 -81 -179 -31 -115 -10 -233 65 -365 68 -122 85 -170 84 -246
-1 -73 -30 -172 -59 -196 -12 -10 -5 -16 48 -40 77 -35 89 -35 117 -5 26 28
185 385 208 468 15 53 15 59 -1 83 -10 15 -49 41 -90 61 -82 39 -136 85 -169
147 -18 35 -22 58 -22 137 0 88 2 99 31 150 40 70 81 102 180 143 77 32 79 34
82 70 2 28 -14 81 -64 205 -97 244 -138 327 -168 347 -26 17 -28 17 -99 -16
-64 -30 -81 -34 -152 -33 -91 0 -156 26 -211 86 -57 59 -78 114 -79 198 0 41
4 84 9 95 5 11 10 25 10 30 1 6 68 14 159 20 127 8 156 12 146 23 -10 10 -1
12 46 12 57 0 58 0 40 20 -18 20 -17 20 36 20 111 0 278 13 273 22 -3 4 49 8
116 8 68 0 119 4 116 9 -3 5 62 12 145 16 146 7 150 8 133 26 -16 18 -16 19
26 19 37 0 41 2 30 15 -11 13 -7 15 24 15 l36 0 0 355 0 355 -440 0 c-488 0
-443 6 -493 -67 -12 -17 -35 -48 -50 -70 -16 -21 -44 -61 -62 -90 l-33 -52 94
-62 c52 -34 94 -66 94 -71 0 -6 -12 -2 -27 8 -371 245 -703 369 -1083 403
-107 10 -292 12 -385 4z m-835 -218 c0 -2 -22 -16 -50 -30 -27 -14 -50 -23
-50 -20 0 2 21 16 48 29 53 28 52 28 52 21z m-110 -60 c0 -2 -10 -9 -22 -15
-22 -11 -22 -10 -4 4 21 17 26 19 26 11z m-170 -109 c0 -2 -8 -10 -17 -17 -16
-13 -17 -12 -4 4 13 16 21 21 21 13z m-90 -70 c0 -2 -8 -10 -17 -17 -16 -13
-17 -12 -4 4 13 16 21 21 21 13z m-70 -60 c0 -2 -8 -10 -17 -17 -16 -13 -17
-12 -4 4 13 16 21 21 21 13z m1741 -129 c-24 -69 -45 -110 -67 -127 -9 -8 -5
3 10 24 14 22 33 61 41 88 14 48 23 68 30 68 2 0 -4 -24 -14 -53z m1732 -4564
c-23 -2 -64 -2 -90 0 -26 2 -7 3 42 3 50 0 71 -1 48 -3z"/>
<path d="M11824 7203 c-132 -137 -274 -284 -316 -328 l-78 -81 -357 -2 c-197
-1 -495 -5 -661 -8 l-304 -7 6 -30 c3 -16 6 -73 6 -126 1 -69 3 -91 11 -79 17
30 76 36 419 42 709 14 763 32 1076 368 226 243 452 498 440 498 -2 0 -111
-111 -242 -247z"/>
<path d="M6727 5806 c-32 -14 -68 -33 -80 -43 -11 -10 -17 -12 -13 -5 12 21
-27 -2 -95 -54 -227 -174 -304 -402 -203 -603 37 -74 97 -137 162 -170 122
-62 308 -55 432 17 75 43 262 202 238 202 -3 0 -29 -16 -58 -35 -117 -79 -271
-87 -405 -21 -42 21 -88 53 -110 77 -53 58 -94 153 -101 230 -6 61 7 159 25
187 6 9 89 14 348 20 188 4 345 10 348 14 11 11 -30 72 -76 113 -23 20 -69 50
-103 66 -54 26 -72 29 -156 29 -77 0 -106 -5 -153 -24z"/>
<path d="M11805 5297 l-226 -284 -487 -6 c-268 -4 -591 -7 -719 -7 -127 0
-238 -3 -247 -6 -13 -5 -16 -21 -15 -78 1 -64 14 -187 18 -160 4 33 54 37 506
45 248 4 486 12 530 18 141 20 260 59 341 113 77 51 157 142 360 413 245 326
228 313 -61 -48z"/>
<path d="M5430 5210 c-14 -10 -50 -28 -80 -40 -85 -33 -100 -46 -100 -83 0
-17 4 -36 8 -42 4 -6 49 31 107 87 98 96 115 116 65 78z"/>
<path d="M7804 4502 c-67 -49 -168 -156 -196 -208 -15 -27 -39 -99 -53 -159
-29 -121 -41 -149 -87 -200 -32 -37 -52 -50 -153 -98 -105 -50 -9 -19 197 64
323 129 316 123 270 240 -17 41 -33 95 -37 121 -10 64 17 153 66 217 21 28 37
51 35 51 -1 0 -21 -13 -42 -28z"/>
<path d="M6644 4018 c-16 -12 -60 -50 -99 -83 -38 -34 -82 -71 -97 -82 l-28
-21 47 -11 c41 -11 50 -10 71 6 14 10 42 52 63 92 20 40 47 84 60 97 28 30 21
31 -17 2z"/>
<path d="M15723 3547 c-56 -95 -82 -141 -117 -214 l-34 -71 24 -48 c17 -34 24
-64 24 -106 0 -32 4 -58 9 -58 15 0 61 65 72 101 5 19 11 99 13 179 3 114 8
158 24 205 11 33 19 61 18 62 -1 1 -16 -21 -33 -50z"/>
<path d="M15476 3269 c-2 -8 -7 -28 -9 -44 -3 -17 -21 -47 -39 -67 -19 -19
-50 -71 -68 -114 -36 -81 -116 -230 -139 -258 -12 -14 -10 -16 8 -16 20 0 21
-4 21 -154 l0 -154 -92 -6 c-165 -12 -242 -38 -293 -98 -37 -43 -52 -82 -60
-149 l-7 -54 20 31 c42 65 174 84 228 33 30 -28 58 -86 80 -164 13 -46 18
-131 25 -365 6 -244 12 -323 27 -397 61 -282 282 -466 559 -464 100 1 217 27
297 66 86 41 215 142 276 215 l45 54 -54 -43 c-68 -53 -134 -87 -208 -106 -67
-17 -265 -20 -333 -4 -136 31 -270 140 -335 273 -36 71 -39 85 -45 194 -4 64
-8 270 -9 457 -2 406 -12 501 -58 556 -18 20 -23 33 -16 40 16 16 88 23 111
10 l20 -11 -19 51 c-13 33 -20 77 -20 125 0 68 4 83 49 182 66 143 91 254 73
331 -11 49 -28 73 -35 50z"/>
<path d="M787 3153 c-17 -26 -47 -63 -65 -82 -48 -51 -84 -105 -124 -186 -70
-139 -98 -243 -163 -600 -50 -274 -64 -337 -153 -685 -123 -483 -129 -637 -25
-701 30 -18 45 -21 111 -17 68 4 87 10 170 54 50 27 92 52 92 56 0 5 -68 8
-150 8 l-150 0 5 23 c3 12 56 249 119 527 63 278 119 524 125 548 l12 42 134
0 134 0 10 53 c47 224 99 460 100 448 1 -13 -163 -853 -175 -898 l-6 -23 206
0 c190 0 206 1 206 18 0 9 -16 96 -35 192 -19 96 -35 183 -35 193 0 15 13 17
130 17 72 0 130 1 130 3 0 2 -36 169 -79 373 -44 203 -86 407 -95 454 -9 47
-23 118 -32 158 l-16 72 -174 0 -174 0 -33 -47z m190 -485 c-3 -8 -6 -5 -6 6
-1 11 2 17 5 13 3 -3 4 -12 1 -19z m-85 -813 c9 -45 -2 -75 -28 -75 -12 0 -25
3 -27 8 -9 15 6 72 19 72 8 0 14 5 14 10 0 21 18 9 22 -15z"/>
<path d="M12811 3143 c-10 -21 -29 -47 -41 -58 -44 -40 -99 -173 -120 -290
-10 -57 -30 -238 -31 -280 0 -11 10 -51 24 -90 l25 -70 4 -682 4 -683 -153 0
-153 0 0 660 c0 636 -1 662 -20 699 l-19 38 107 8 c59 4 126 10 150 14 l43 6
-30 60 c-59 116 -158 204 -279 247 -108 38 -326 35 -434 -7 -14 -6 -18 -2 -18
14 0 21 -3 21 -147 19 l-148 -3 -20 -33 c-11 -18 -37 -53 -57 -79 -20 -25 -55
-81 -79 -124 -23 -44 -45 -79 -49 -79 -4 0 -1 -23 6 -52 30 -116 28 -124 -132
-437 -80 -157 -149 -289 -152 -293 -4 -4 -7 144 -7 327 l0 335 65 0 c36 0 99
5 141 11 l76 12 -12 46 c-46 173 -206 325 -382 361 -34 8 -106 11 -178 8 -103
-4 -129 -8 -185 -32 -36 -15 -70 -28 -77 -28 -7 -1 -10 -4 -8 -8 2 -3 -6 -12
-18 -20 -21 -12 -21 -12 -7 5 13 17 13 18 0 10 -75 -43 -153 -107 -249 -205
-62 -63 -119 -115 -125 -115 -12 0 -22 -1247 -11 -1294 5 -18 9 -21 14 -12 14
21 47 4 124 -65 83 -74 182 -126 282 -150 126 -29 324 0 463 69 62 31 211 123
222 138 14 18 78 49 102 49 24 0 32 -9 64 -72 57 -113 101 -142 208 -136 58 3
85 10 144 41 39 20 78 37 86 37 7 0 19 7 26 15 11 13 -4 15 -129 15 l-141 0 0
292 c0 289 0 291 -20 273 -11 -10 -22 -26 -25 -36 -6 -18 -44 -27 -57 -14 -5
6 5 72 17 110 13 41 -68 -134 -116 -249 -55 -133 -105 -206 -181 -267 -104
-82 -193 -109 -358 -109 -171 0 -271 36 -378 135 -73 68 -118 135 -143 216
-17 56 -19 97 -19 485 l0 424 112 0 c114 0 178 13 178 37 0 17 36 90 48 97 5
3 -2 -16 -15 -41 -19 -39 -23 -61 -22 -137 1 -91 2 -95 13 -43 13 56 99 60
160 7 45 -40 82 -127 100 -240 38 -231 58 -368 57 -403 0 -86 -70 -210 -124
-220 -12 -2 11 -5 51 -6 41 0 86 5 105 12 72 31 135 134 368 600 94 187 181
357 195 378 24 38 25 39 85 39 37 0 58 4 54 10 -4 6 31 10 97 10 57 0 114 3
127 7 22 5 20 1 -18 -47 -44 -56 -150 -229 -196 -321 -34 -67 -30 -63 33 31
93 139 161 189 254 190 41 0 54 -5 89 -37 94 -85 100 -118 109 -648 8 -438 12
-491 46 -559 36 -69 69 -93 152 -106 71 -12 160 1 238 36 l58 25 80 -20 c108
-27 160 -21 266 30 47 23 96 47 110 53 34 16 38 51 8 60 -13 4 -78 9 -145 13
l-123 6 0 1059 c0 684 -3 1058 -10 1058 -5 0 -18 -17 -29 -37z"/>
<path d="M16246 3124 c-32 -37 -53 -53 -63 -49 -22 8 -12 -61 19 -122 l23 -48
6 80 c6 87 11 101 46 158 13 20 22 37 20 37 -2 0 -25 -25 -51 -56z"/>
<path d="M13970 3123 c-12 -28 -30 -59 -41 -69 -11 -9 -28 -46 -39 -81 -21
-70 -17 -131 14 -177 23 -36 20 -65 -14 -128 -37 -69 -67 -211 -81 -383 -6
-75 -9 -362 -7 -675 3 -536 3 -546 25 -604 29 -76 64 -113 127 -131 85 -25
175 -16 298 31 45 18 47 18 121 -5 100 -32 160 -26 270 27 45 22 90 43 100 46
9 3 17 10 17 16 0 6 -49 10 -135 10 l-135 0 0 873 c-1 868 -1 872 -20 848 -11
-13 -20 -28 -20 -35 0 -6 -27 -38 -60 -71 -50 -49 -62 -57 -70 -45 -6 10 -10
-274 -10 -780 l0 -795 -150 3 -150 3 0 853 c0 470 -3 868 -6 885 l-6 31 63 0
c40 0 59 4 50 9 -17 11 64 75 117 92 73 23 56 29 -81 29 l-137 0 -1 118 c0 64
-4 126 -8 137 -7 17 -12 12 -31 -32z"/>
<path d="M3274 3003 c-15 -32 -37 -72 -50 -89 -37 -48 -73 -138 -105 -261 -35
-136 -44 -156 -104 -216 -48 -49 -60 -55 -68 -34 -3 6 -5 -121 -5 -283 1 -162
3 -283 5 -268 6 39 26 52 46 30 25 -28 65 -114 77 -167 6 -28 15 -131 20 -230
5 -99 16 -205 24 -235 56 -203 211 -351 403 -382 81 -14 189 1 277 38 33 14
79 33 101 41 22 8 47 21 55 29 12 12 3 14 -70 14 -199 1 -305 38 -421 147 -77
73 -132 169 -149 262 -6 29 -10 190 -10 357 l0 304 145 0 145 0 1 48 1 47 9
-40 c4 -22 8 -69 8 -104 1 -62 1 -63 19 -42 31 39 184 56 241 26 36 -18 41
-30 57 -140 18 -121 19 -541 2 -548 -7 -3 -1 -6 15 -6 l27 -1 1 -127 c1 -71 3
-119 6 -108 3 11 8 24 12 28 5 4 46 -29 92 -75 133 -131 266 -190 433 -189
157 1 319 55 466 156 105 71 163 105 191 110 20 4 41 -21 78 -95 65 -128 175
-151 345 -71 44 22 90 42 101 45 44 15 -13 26 -137 26 l-128 0 0 285 c0 183
-4 285 -10 285 -5 0 -10 -3 -10 -7 0 -5 -10 -21 -23 -36 -16 -21 -27 -26 -41
-21 -15 6 -17 14 -13 48 4 23 9 51 12 61 11 37 -57 -110 -102 -220 -25 -60
-54 -126 -66 -145 -65 -110 -170 -195 -284 -230 -91 -28 -304 -29 -392 -1
-156 48 -294 195 -337 356 -10 35 -14 122 -14 291 l0 241 92 7 c50 3 115 6
145 6 l53 0 0 188 c1 143 4 194 16 217 8 17 11 21 8 10 -4 -11 -9 -56 -12 -99
-3 -57 -2 -77 7 -72 6 4 11 13 11 20 0 31 89 34 135 6 66 -41 105 -128 130
-295 32 -212 44 -291 50 -331 14 -85 -50 -220 -118 -249 -31 -14 -30 -14 38
-14 153 -1 195 48 405 464 l86 170 144 3 145 3 60 106 c33 58 66 113 73 122 8
9 4 -2 -8 -24 -43 -77 -111 -210 -98 -191 140 203 195 256 270 256 74 0 129
-46 177 -150 44 -95 52 -173 61 -600 8 -423 13 -458 70 -524 67 -75 159 -75
315 1 l100 48 -140 5 -140 5 2 484 c1 388 4 486 15 492 7 5 47 9 88 9 41 0 99
3 128 6 l52 7 0 136 c0 140 8 192 35 226 15 18 15 17 0 -12 -10 -22 -15 -60
-14 -125 1 -80 2 -88 11 -56 6 24 17 38 31 42 86 23 154 -29 199 -150 21 -56
22 -82 29 -499 7 -476 13 -530 62 -604 39 -59 77 -76 168 -76 64 0 85 5 140
32 35 17 81 38 102 47 69 28 45 36 -114 36 l-151 0 4 499 c1 275 6 503 10 507
5 4 55 9 113 12 57 3 102 9 99 13 -3 5 11 9 30 9 l36 0 0 148 c0 223 -30 310
-146 429 -68 70 -170 125 -263 143 -120 23 -286 8 -373 -34 -26 -13 -45 -19
-42 -14 3 4 -2 5 -10 2 -9 -3 -13 -11 -9 -17 3 -6 1 -7 -5 -3 -6 4 -30 -3 -52
-16 -29 -17 -38 -28 -34 -41 3 -11 -18 0 -59 32 -109 82 -156 95 -332 95 -117
0 -160 -4 -194 -17 -54 -21 -51 -21 -51 3 0 19 -7 20 -144 20 l-144 0 -26 -31
c-14 -17 -26 -34 -26 -39 0 -4 -18 -29 -40 -56 -21 -26 -53 -75 -71 -108 -17
-34 -39 -69 -47 -78 -12 -14 -13 -25 -3 -62 6 -25 11 -71 10 -103 0 -54 -9
-76 -149 -353 l-149 -295 0 148 -1 147 69 0 70 0 75 149 c51 100 76 161 76
184 0 121 -61 258 -157 354 -111 112 -222 148 -423 141 -97 -4 -125 -9 -180
-32 -36 -15 -74 -30 -85 -33 -78 -22 -278 -197 -349 -306 -21 -32 -44 -61 -52
-64 -10 -4 -14 -26 -14 -83 0 -44 -4 -82 -10 -85 -6 -4 -10 47 -10 144 l0 151
-181 0 -181 0 8 305 7 305 -151 0 -151 0 -27 -57z m-21 -550 c-23 -2 -64 -2
-90 0 -26 2 -7 3 42 3 50 0 71 -1 48 -3z"/>
<path d="M13150 2856 c0 -23 3 -71 6 -105 7 -58 8 -61 24 -46 12 11 59 21 136
30 246 29 341 51 414 94 25 14 54 31 64 37 58 31 30 34 -308 34 l-336 0 0 -44z"/>
<path d="M1831 2726 c-12 -18 -21 -38 -21 -44 0 -6 -17 -32 -37 -59 -20 -26
-49 -80 -64 -120 -52 -134 -59 -193 -69 -558 -14 -544 -14 -666 0 -710 41
-124 194 -296 315 -354 107 -51 236 -74 370 -67 199 11 331 43 485 119 l105
52 -139 3 c-129 2 -138 4 -143 23 -3 11 -11 18 -19 15 -60 -23 -114 -30 -234
-29 -111 0 -146 4 -194 22 -156 56 -272 180 -320 340 -13 44 -16 104 -16 303
l0 248 138 0 139 0 6 212 c4 116 7 307 7 425 l0 213 -144 0 -144 0 -21 -34z"/>
<path d="M2630 2745 c0 -8 -4 -15 -8 -15 -5 0 -19 -25 -31 -55 -13 -30 -27
-55 -32 -55 -15 0 -77 -142 -98 -225 -28 -112 -43 -345 -35 -575 7 -230 -5
-395 -33 -443 -11 -17 -34 -42 -53 -54 l-33 -23 84 0 c100 0 155 22 203 83
l31 39 6 211 c4 117 7 227 8 245 l1 32 140 0 140 0 0 123 c0 68 3 259 7 425
l6 302 -151 0 c-128 0 -152 -2 -152 -15z"/>
<path d="M7990 2750 c-30 -6 -85 -25 -122 -43 -36 -18 -64 -29 -62 -25 9 14
-68 -34 -127 -78 -98 -75 -184 -177 -215 -254 -23 -58 -26 -79 -22 -134 4 -41
14 -79 27 -101 41 -70 17 -159 -76 -284 -41 -56 -59 -63 -66 -28 -2 12 -4
-162 -4 -388 -1 -225 1 -401 4 -390 12 49 39 39 143 -50 136 -117 279 -162
490 -152 130 6 316 35 385 60 22 8 69 30 105 49 36 19 75 37 88 40 12 3 22 11
22 17 0 7 -45 11 -140 11 l-140 0 0 29 0 29 -62 -26 c-92 -37 -267 -43 -366
-13 -81 24 -176 85 -228 144 -45 53 -97 155 -115 227 -19 78 -17 259 5 346 50
202 190 356 401 440 66 26 317 94 343 93 9 0 -62 -22 -159 -49 -163 -45 -284
-94 -334 -135 -19 -15 -15 -16 65 -11 47 3 127 6 178 6 51 0 91 4 88 8 -3 5
70 12 162 16 92 3 200 9 240 13 l72 6 0 147 c0 120 -4 160 -20 213 -35 112
-123 207 -229 248 -61 23 -247 33 -331 19z m-94 -457 c-6 -26 -12 -38 -14 -27
-3 19 13 74 21 74 2 0 -1 -21 -7 -47z"/>
<path d="M14828 2682 c-16 -9 -28 -25 -28 -34 0 -25 4 -23 34 17 31 40 31 40
-6 17z"/>
<path d="M16483 2624 c-3 -8 -1 -20 6 -27 8 -8 11 -4 11 16 0 30 -7 35 -17 11z"/>
<path d="M15817 2450 c-46 -14 -93 -56 -116 -103 -18 -36 -21 -62 -21 -160 l0
-117 128 0 c70 0 178 -3 240 -7 l112 -6 0 127 c0 105 -3 133 -19 164 -42 81
-103 112 -218 111 -43 0 -91 -5 -106 -9z"/>
<path d="M8170 1945 c-126 -34 -193 -68 -254 -125 -62 -58 -102 -137 -111
-220 -6 -53 -5 -54 9 -29 20 35 53 54 97 58 71 5 127 -74 116 -165 -5 -50 -49
-124 -78 -131 -64 -17 35 -37 110 -23 66 12 79 20 128 73 74 81 102 207 103
465 0 142 11 133 -120 97z"/>
<path d="M13150 1861 c0 -78 13 -164 22 -147 7 13 179 76 209 76 6 0 43 16 83
35 40 19 80 35 88 35 9 0 26 9 39 20 l24 19 -232 1 -233 0 0 -39z"/>
<path d="M15680 1613 c0 -148 0 -148 18 -113 17 35 18 35 87 38 56 2 79 -2
115 -20 43 -22 45 -25 48 -73 3 -59 -24 -111 -63 -121 -14 -3 -25 -11 -25 -16
0 -7 31 -9 83 -6 96 5 132 21 181 81 30 37 31 44 34 143 l4 104 70 0 c38 0 67
4 64 8 -9 14 56 69 101 87 24 10 40 21 37 26 -3 5 -170 9 -380 9 l-374 0 0
-147z"/>
<path d="M725 1408 c-2 -7 -13 -65 -25 -128 -12 -63 -23 -126 -26 -140 -4 -19
0 -17 16 12 15 29 28 39 58 45 135 27 266 -41 392 -205 57 -73 108 -105 180
-110 62 -5 154 17 205 48 17 10 49 23 73 29 25 7 42 18 42 26 0 13 -24 15
-145 15 -80 0 -145 1 -145 3 -1 1 -20 94 -43 207 l-42 205 -268 3 c-209 2
-268 0 -272 -10z"/>
<path d="M1591 1345 c0 -25 47 -207 48 -187 1 28 -28 161 -40 182 -5 8 -8 11
-8 5z"/>
</g>
</svg>
